<svg width="48" height="48" viewBox="0 0 48 48" fill="none" xmlns="http://www.w3.org/2000/svg">
<mask id="mask0_7822_1582" style="mask-type:luminance" maskUnits="userSpaceOnUse" x="0" y="0" width="48" height="48">
<path d="M0 0H48V48H0V0Z" fill="white"/>
</mask>
<g mask="url(#mask0_7822_1582)">
<path d="M8.35938 9.26843C9.15222 8.361 10.017 7.51899 10.9452 6.75059" stroke="#9DFF3A" stroke-width="1.5" stroke-miterlimit="10" stroke-linecap="round" stroke-linejoin="round"/>
<path d="M3.41016 18.9504C3.96148 16.5539 4.90595 14.2652 6.20522 12.1773" stroke="#9DFF3A" stroke-width="1.5" stroke-miterlimit="10" stroke-linecap="round" stroke-linejoin="round"/>
<path d="M10.8056 41.1333C5.93641 37.0359 2.83984 30.8814 2.83984 24C2.83984 23.7386 2.84434 23.4783 2.85316 23.2192" stroke="#9DFF3A" stroke-width="1.5" stroke-miterlimit="10" stroke-linecap="round" stroke-linejoin="round"/>
<path d="M35.8398 43.5439C32.649 45.3235 28.9765 46.3369 25.0686 46.3369C21.1739 46.3369 17.5133 45.3304 14.3301 43.562" stroke="#9DFF3A" stroke-width="1.5" stroke-miterlimit="10" stroke-linecap="round" stroke-linejoin="round"/>
<path d="M43.918 12.1537C46.0597 15.5875 47.298 19.6484 47.298 23.9999C47.298 30.8712 44.2105 37.0178 39.3535 41.1152" stroke="#9DFF3A" stroke-width="1.5" stroke-miterlimit="10" stroke-linecap="round" stroke-linejoin="round"/>
<path d="M38.9941 6.58923C39.8167 7.25454 40.5911 7.97725 41.3115 8.75195" stroke="#9DFF3A" stroke-width="1.5" stroke-miterlimit="10" stroke-linecap="round" stroke-linejoin="round"/>
<path d="M14.4707 4.36145C17.6213 2.64067 21.2322 1.66314 25.0704 1.66314C28.81 1.66314 32.3339 2.59117 35.4265 4.23048" stroke="#9DFF3A" stroke-width="1.5" stroke-miterlimit="10" stroke-linecap="round" stroke-linejoin="round"/>
<path d="M26.9297 9.47144C29.4333 7.9134 32.1912 6.68884 35.155 5.87144" stroke="#9DFF3A" stroke-width="1.5" stroke-miterlimit="10" stroke-linecap="round" stroke-linejoin="round"/>
<path d="M17.8223 18.0847C19.4296 15.8026 21.3318 13.7432 23.4793 11.9601" stroke="#9DFF3A" stroke-width="1.5" stroke-miterlimit="10" stroke-linecap="round" stroke-linejoin="round"/>
<path d="M12.2634 40.2014C11.4633 33.6596 12.7283 27.2742 15.5859 21.7639" stroke="#9DFF3A" stroke-width="1.5" stroke-miterlimit="10" stroke-linecap="round" stroke-linejoin="round"/>
<path d="M23.2083 9.47156C20.62 7.86084 17.76 6.60656 14.6816 5.79" stroke="#9DFF3A" stroke-width="1.5" stroke-miterlimit="10" stroke-linecap="round" stroke-linejoin="round"/>
<path d="M35.3697 23.4637C33.3924 19.0249 30.4133 15.076 26.6582 11.9602" stroke="#9DFF3A" stroke-width="1.5" stroke-miterlimit="10" stroke-linecap="round" stroke-linejoin="round"/>
<path d="M37.7716 31.7161C37.5603 30.2883 37.2516 28.8767 36.8477 27.491" stroke="#9DFF3A" stroke-width="1.5" stroke-miterlimit="10" stroke-linecap="round" stroke-linejoin="round"/>
<path d="M37.8613 40.3079C38.0476 38.8264 38.1296 37.3337 38.1068 35.8408" stroke="#9DFF3A" stroke-width="1.5" stroke-miterlimit="10" stroke-linecap="round" stroke-linejoin="round"/>
<path d="M14.6131 19.4767C11.411 19.4604 8.16055 19.804 4.91211 20.537" stroke="#9DFF3A" stroke-width="1.5" stroke-miterlimit="10" stroke-linecap="round" stroke-linejoin="round"/>
<path d="M34.3265 24.399C29.5593 21.8999 24.3217 20.2866 18.873 19.7117" stroke="#9DFF3A" stroke-width="1.5" stroke-miterlimit="10" stroke-linecap="round" stroke-linejoin="round"/>
<path d="M45.5021 32.8053C43.2477 30.4517 40.7351 28.3601 38.0117 26.5699" stroke="#9DFF3A" stroke-width="1.5" stroke-miterlimit="10" stroke-linecap="round" stroke-linejoin="round"/>
<path d="M37.2578 23.587C39.3877 20.1584 41.0269 16.4484 42.1275 12.565" stroke="#9DFF3A" stroke-width="1.5" stroke-miterlimit="10" stroke-linecap="round" stroke-linejoin="round"/>
<path d="M14.6133 41.6816C22.6493 38.9102 29.6816 33.8074 34.8288 27.1002" stroke="#9DFF3A" stroke-width="1.5" stroke-miterlimit="10" stroke-linecap="round" stroke-linejoin="round"/>
<path d="M25.0692 12.6737C23.8905 12.6737 22.9316 11.7101 22.9316 10.5256C22.9316 9.34117 23.8905 8.37761 25.0692 8.37761C26.248 8.37761 27.2068 9.34117 27.2068 10.5256C27.2068 11.7101 26.248 12.6737 25.0692 12.6737Z" stroke="#9DFF3A" stroke-width="1.5" stroke-miterlimit="10" stroke-linecap="round" stroke-linejoin="round"/>
<path d="M16.7509 22.1118C15.5722 22.1118 14.6133 21.1482 14.6133 19.9637C14.6133 18.7793 15.5722 17.8156 16.7509 17.8156C17.9296 17.8156 18.8885 18.7793 18.8885 19.9637C18.8885 21.1482 17.9296 22.1118 16.7509 22.1118Z" stroke="#9DFF3A" stroke-width="1.5" stroke-miterlimit="10" stroke-linecap="round" stroke-linejoin="round"/>
<path d="M36.1903 27.595C35.0116 27.595 34.0527 26.6313 34.0527 25.4469C34.0527 24.2624 35.0116 23.2988 36.1903 23.2988C37.369 23.2988 38.3279 24.2624 38.3279 25.4469C38.3279 26.6313 37.369 27.595 36.1903 27.595Z" stroke="#9DFF3A" stroke-width="1.5" stroke-miterlimit="10" stroke-linecap="round" stroke-linejoin="round"/>
<path d="M12.5829 44.4733C11.4042 44.4733 10.4453 43.5097 10.4453 42.3252C10.4453 41.1407 11.4042 40.1772 12.5829 40.1772C13.7616 40.1772 14.7206 41.1407 14.7206 42.3252C14.7206 43.5097 13.7616 44.4733 12.5829 44.4733Z" stroke="#9DFF3A" stroke-width="1.5" stroke-miterlimit="10" stroke-linecap="round" stroke-linejoin="round"/>
<path d="M37.6767 44.5957C36.4979 44.5957 35.5391 43.632 35.5391 42.4476C35.5391 41.2632 36.4979 40.2995 37.6767 40.2995C38.8554 40.2995 39.8143 41.2632 39.8143 42.4476C39.8143 43.632 38.8554 44.5957 37.6767 44.5957Z" stroke="#9DFF3A" stroke-width="1.5" stroke-miterlimit="10" stroke-linecap="round" stroke-linejoin="round"/>
<path d="M42.6611 12.5651C41.4824 12.5651 40.5234 11.6014 40.5234 10.417C40.5234 9.23253 41.4824 8.26888 42.6611 8.26888C43.8398 8.26888 44.7987 9.23253 44.7987 10.417C44.7987 11.6014 43.8398 12.5651 42.6611 12.5651Z" stroke="#9DFF3A" stroke-width="1.5" stroke-miterlimit="10" stroke-linecap="round" stroke-linejoin="round"/>
<path d="M37.2352 7.52063C36.0565 7.52063 35.0977 6.55707 35.0977 5.37254C35.0977 4.1881 36.0565 3.22454 37.2352 3.22454C38.414 3.22454 39.3729 4.1881 39.3729 5.37254C39.3729 6.55707 38.414 7.52063 37.2352 7.52063Z" stroke="#9DFF3A" stroke-width="1.5" stroke-miterlimit="10" stroke-linecap="round" stroke-linejoin="round"/>
<path d="M12.5829 7.52063C11.4042 7.52063 10.4453 6.55707 10.4453 5.37254C10.4453 4.1881 11.4042 3.22454 12.5829 3.22454C13.7616 3.22454 14.7206 4.1881 14.7206 5.37254C14.7206 6.55707 13.7616 7.52063 12.5829 7.52063Z" stroke="#9DFF3A" stroke-width="1.5" stroke-miterlimit="10" stroke-linecap="round" stroke-linejoin="round"/>
<path d="M2.84072 23.2186C1.662 23.2186 0.703125 22.2551 0.703125 21.0705C0.703125 19.8861 1.662 18.9225 2.84072 18.9225C4.01944 18.9225 4.97831 19.8861 4.97831 21.0705C4.97831 22.2551 4.01944 23.2186 2.84072 23.2186Z" stroke="#9DFF3A" stroke-width="1.5" stroke-miterlimit="10" stroke-linecap="round" stroke-linejoin="round"/>
</g>
</svg>
